<svg width="67" height="68" viewBox="0 0 67 68" fill="none" xmlns="http://www.w3.org/2000/svg">
<path fill-rule="evenodd" clip-rule="evenodd" d="M18.2269 6.08373C22.3616 2.17661 27.6351 0.0187613 33.0948 0C44.2229 0 53.4604 9.06666 54.4657 20.7581C61.0515 21.7781 66.1895 27.821 66.1895 35.2376C66.1895 43.3794 59.9925 49.8666 52.4841 49.8666H41.3684C40.8199 49.8666 40.2937 49.6278 39.9058 49.2027C39.5179 48.7777 39.3 48.2011 39.3 47.6C39.3 46.9988 39.5179 46.4223 39.9058 45.9972C40.2937 45.5721 40.8199 45.3333 41.3684 45.3333H52.4883C57.8289 45.3333 62.0527 40.7456 62.0527 35.2376C62.0527 29.725 57.8331 25.1373 52.4841 25.1373H50.4157V22.8707C50.4199 12.8067 42.7253 4.53333 33.0948 4.53333C28.6264 4.55289 24.3116 6.32143 20.9283 9.51999C17.7967 12.4757 16.1585 16.0389 16.1585 18.836V20.8669L14.3176 21.0891C8.53845 21.7827 4.13684 26.9824 4.13684 33.1749C4.13684 39.8253 9.22516 45.3333 15.6414 45.3333H24.8211C25.3696 45.3333 25.8958 45.5721 26.2837 45.9972C26.6716 46.4223 26.8895 46.9988 26.8895 47.6C26.8895 48.2011 26.6716 48.7777 26.2837 49.2027C25.8958 49.6278 25.3696 49.8666 24.8211 49.8666H15.6414C7.06573 49.8666 0 42.4592 0 33.1749C0 25.1826 5.23724 18.564 12.1706 16.8867C12.7622 12.9744 15.0581 9.07573 18.2269 6.08373V6.08373Z" fill="black"/>
<path fill-rule="evenodd" clip-rule="evenodd" d="M31.6304 18.7953C31.8225 18.5842 32.0508 18.4168 32.3021 18.3025C32.5534 18.1882 32.8228 18.1294 33.0948 18.1294C33.3669 18.1294 33.6363 18.1882 33.8876 18.3025C34.1389 18.4168 34.3672 18.5842 34.5593 18.7953L46.9698 32.3953C47.3582 32.8209 47.5764 33.3982 47.5764 34.0001C47.5764 34.602 47.3582 35.1793 46.9698 35.6049C46.5814 36.0305 46.0547 36.2696 45.5054 36.2696C44.9561 36.2696 44.4293 36.0305 44.0409 35.6049L35.1633 25.8718V65.7334C35.1633 66.3346 34.9454 66.9111 34.5574 67.3362C34.1695 67.7613 33.6434 68.0001 33.0948 68.0001C32.5463 68.0001 32.0202 67.7613 31.6323 67.3362C31.2444 66.9111 31.0264 66.3346 31.0264 65.7334V25.8718L22.1488 35.6049C21.7604 36.0305 21.2336 36.2696 20.6843 36.2696C20.135 36.2696 19.6083 36.0305 19.2199 35.6049C18.8315 35.1793 18.6133 34.602 18.6133 34.0001C18.6133 33.3982 18.8315 32.8209 19.2199 32.3953L31.6304 18.7953Z" fill="black"/>
</svg>
