<svg fill="none" height="53" viewBox="0 0 61 53" width="61" xmlns="http://www.w3.org/2000/svg"><g clip-rule="evenodd" fill="#000" fill-rule="evenodd"><path d="m6.04297 46.6141v-24.3559h4.02693v24.3559c0 .4969.2121.9735.5897 1.3248.3776.3514.8898.5488 1.4238.5488h36.2425c.534 0 1.0461-.1974 1.4237-.5488.3776-.3513.5897-.8279.5897-1.3248v-24.3559h4.027v24.3559c0 1.4907-.6364 2.9203-1.7692 3.9744-1.1328 1.054-2.6692 1.6462-4.2712 1.6462h-36.2425c-1.602 0-3.13844-.5922-4.27123-1.6462-1.1328-1.0541-1.7692-2.4837-1.7692-3.9744zm44.29633-41.21762v13.11472l-8.0538-7.4941v-5.62062c0-.49689.2121-.97343.5897-1.32479.3776-.35135.8897-.54874 1.4237-.54874h4.027c.534 0 1.0461.19739 1.4237.54874.3776.35136.5897.8279.5897 1.32479z"/><path d="m27.3576 1.6494c.7551-.70247 1.7792-1.097093 2.847-1.097093s2.0919.394623 2.8471 1.097093l26.7671 24.903c.378.3517.5904.8289.5904 1.3264s-.2124.9747-.5904 1.3265c-.3781.3518-.8909.5494-1.4256.5494s-1.0474-.1976-1.4255-.5494l-26.7631-24.90673-26.76305 24.90673c-.37807.3518-.89085.5494-1.42553.5494-.53469 0-1.047466-.1976-1.425543-.5494-.378076-.3518-.590477-.829-.590477-1.3265s.212401-.9747.590477-1.3264z"/></g></svg>