<svg width="51" height="60" viewBox="0 0 51 60" fill="none" xmlns="http://www.w3.org/2000/svg">
<path d="M51 12.646C51 15.8187 49.106 18.4826 48.3773 19.4829C46.693 21.7962 44.744 23.0268 44.005 23.4943C23.0406 35.3566 20.7032 39.1893 20.4454 49.4119C20.4454 55.0561 15.8703 59.6381 10.2192 59.6381C4.57511 59.6381 0 55.0561 0 49.4119V10.2192C0 4.57511 4.57511 0 10.2192 0C15.8703 0 20.4454 4.57511 20.4454 10.2192V12.646C20.4454 15.4337 22.7072 17.6955 25.5017 17.6955C28.2894 17.6955 30.5512 15.4337 30.5512 12.646C30.5512 7.00188 35.1263 2.41989 40.7773 2.41989C46.418 2.42333 51 7.00188 51 12.646Z" fill="#002F8A"/>
<path d="M40.7705 59.6346C46.4164 59.6346 50.9932 55.0578 50.9932 49.4119C50.9932 43.7661 46.4164 39.1892 40.7705 39.1892C35.1247 39.1892 30.5479 43.7661 30.5479 49.4119C30.5479 55.0578 35.1247 59.6346 40.7705 59.6346Z" fill="#002F8A"/>
</svg>
