<svg width="51" height="47" viewBox="0 0 51 47" fill="none" xmlns="http://www.w3.org/2000/svg">
<path fill-rule="evenodd" clip-rule="evenodd" d="M5.10156 41.792V19.6938H8.50128V41.792C8.50128 42.2428 8.68037 42.6752 8.99915 42.9939C9.31794 43.3127 9.7503 43.4918 10.2011 43.4918H40.7986C41.2494 43.4918 41.6818 43.3127 42.0005 42.9939C42.3193 42.6752 42.4984 42.2428 42.4984 41.792V19.6938H45.8981V41.792C45.8981 43.1444 45.3609 44.4415 44.4045 45.3979C43.4481 46.3543 42.151 46.8915 40.7986 46.8915H10.2011C8.84864 46.8915 7.55155 46.3543 6.59519 45.3979C5.63884 44.4415 5.10156 43.1444 5.10156 41.792V41.792ZM42.4984 4.39511V16.2941L35.699 9.49468V4.39511C35.699 3.94428 35.8781 3.51191 36.1969 3.19313C36.5156 2.87434 36.948 2.69525 37.3988 2.69525H40.7986C41.2494 2.69525 41.6818 2.87434 42.0005 3.19313C42.3193 3.51191 42.4984 3.94428 42.4984 4.39511Z" fill="#86AFFF"/>
<path fill-rule="evenodd" clip-rule="evenodd" d="M23.0964 0.99539C23.7339 0.358042 24.5985 0 25.5 0C26.4015 0 27.2661 0.358042 27.9036 0.99539L50.5015 23.5899C50.8207 23.9091 51 24.342 51 24.7934C51 25.2448 50.8207 25.6777 50.5015 25.9969C50.1823 26.3161 49.7494 26.4954 49.298 26.4954C48.8466 26.4954 48.4137 26.3161 48.0945 25.9969L25.5 3.39899L2.9055 25.9969C2.58631 26.3161 2.1534 26.4954 1.702 26.4954C1.2506 26.4954 0.817693 26.3161 0.498506 25.9969C0.179318 25.6777 0 25.2448 0 24.7934C0 24.342 0.179318 23.9091 0.498506 23.5899L23.0964 0.99539Z" fill="#86AFFF"/>
</svg>
