<svg width="48" height="48" viewBox="0 0 48 48" fill="none" xmlns="http://www.w3.org/2000/svg">
<path d="M35.4375 15.75C36.4818 15.75 37.4833 15.3352 38.2217 14.5967C38.9602 13.8583 39.375 12.8568 39.375 11.8125C39.375 10.7682 38.9602 9.76669 38.2217 9.02827C37.4833 8.28984 36.4818 7.875 35.4375 7.875C34.3932 7.875 33.3917 8.28984 32.6533 9.02827C31.9148 9.76669 31.5 10.7682 31.5 11.8125C31.5 12.8568 31.9148 13.8583 32.6533 14.5967C33.3917 15.3352 34.3932 15.75 35.4375 15.75V15.75Z" fill="#86AFFF"/>
<path d="M21.6563 39.375V37.4062H25.5938C26.1159 37.4062 26.6167 37.1988 26.9859 36.8296C27.3551 36.4604 27.5625 35.9596 27.5625 35.4375V31.5H31.5C34.8072 31.4992 38.0303 30.4574 40.7123 28.5222C43.3942 26.587 45.399 23.8566 46.4422 20.7182C47.4855 17.5799 47.5143 14.1927 46.5246 11.037C45.535 7.88129 43.5771 5.1172 40.9285 3.13661C38.2798 1.15601 35.075 0.0594372 31.7682 0.00234788C28.4615 -0.0547414 25.2206 0.930555 22.5052 2.81854C19.7898 4.70652 17.7377 7.40138 16.6397 10.521C15.5417 13.6407 15.4536 17.0268 16.3879 20.1994L1.14975 35.4375C0.41272 36.1764 -0.000820391 37.1777 1.22193e-06 38.2213V43.3125C1.22193e-06 44.3568 0.414844 45.3583 1.15327 46.0967C1.89169 46.8352 2.89321 47.25 3.9375 47.25H11.8125C12.8568 47.25 13.8583 46.8352 14.5967 46.0967C15.3352 45.3583 15.75 44.3568 15.75 43.3125V41.3438H19.6875C20.2096 41.3438 20.7104 41.1363 21.0796 40.7671C21.4488 40.3979 21.6563 39.8971 21.6563 39.375ZM19.6875 15.75C19.6875 13.4137 20.3803 11.1299 21.6783 9.18733C22.9762 7.24477 24.8211 5.73073 26.9796 4.83667C29.138 3.94261 31.5131 3.70869 33.8045 4.16447C36.0959 4.62026 38.2007 5.74529 39.8527 7.3973C41.5047 9.04931 42.6297 11.1541 43.0855 13.4455C43.5413 15.7369 43.3074 18.112 42.4133 20.2704C41.5193 22.4289 40.0052 24.2738 38.0627 25.5717C36.1201 26.8697 33.8363 27.5625 31.5 27.5625H25.5938C25.0716 27.5625 24.5708 27.7699 24.2016 28.1391C23.8324 28.5083 23.625 29.0091 23.625 29.5313V33.4688H19.6875C19.1654 33.4688 18.6646 33.6762 18.2954 34.0454C17.9262 34.4146 17.7188 34.9154 17.7188 35.4375V37.4062H13.7813C13.2591 37.4062 12.7583 37.6137 12.3891 37.9829C12.0199 38.3521 11.8125 38.8529 11.8125 39.375V43.3125H3.9375V38.2213L20.0379 22.1209C20.3079 21.8512 20.4936 21.5089 20.5726 21.1356C20.6516 20.7623 20.6204 20.3741 20.4829 20.0183C19.971 18.6953 19.6875 17.262 19.6875 15.75Z" fill="#86AFFF"/>
</svg>
