<svg width="48" height="48" viewBox="0 0 48 48" fill="none" xmlns="http://www.w3.org/2000/svg">
<path d="M24 4.8C34.584 4.8 43.2 13.416 43.2 24C43.2 34.584 34.584 43.2 24 43.2C13.416 43.2 4.8 34.584 4.8 24C4.8 13.416 13.416 4.8 24 4.8ZM24 0C10.8 0 0 10.8 0 24C0 37.2 10.8 48 24 48C37.2 48 48 37.2 48 24C48 10.8 37.2 0 24 0ZM24 21.6C22.68 21.6 21.6 22.68 21.6 24C21.6 25.32 22.68 26.4 24 26.4C25.32 26.4 26.4 25.32 26.4 24C26.4 22.68 25.32 21.6 24 21.6ZM20.928 17.52C21.864 17.064 22.896 16.8 24 16.8C25.104 16.8 26.136 17.064 27.096 17.52L28.8 15.768C27.432 14.928 25.776 14.4 24 14.4C22.224 14.4 20.592 14.928 19.2 15.768L20.928 17.52ZM31.2 24C31.2 25.104 30.936 26.136 30.48 27.096L32.232 28.8C33.096 27.432 33.6 25.776 33.6 24C33.6 22.224 33.096 20.592 32.232 19.2L30.48 20.928C30.936 21.864 31.2 22.896 31.2 24ZM16.8 24C16.8 22.896 17.064 21.864 17.52 20.928L15.768 19.2C14.928 20.592 14.4 22.224 14.4 24C14.4 25.776 14.928 27.432 15.768 28.8L17.52 27.096C17.064 26.136 16.8 25.104 16.8 24ZM27.096 30.48C26.136 30.936 25.104 31.2 24 31.2C22.896 31.2 21.864 30.936 20.928 30.48L19.2 32.232C20.592 33.096 22.224 33.6 24 33.6C25.776 33.6 27.432 33.096 28.8 32.232L27.096 30.48ZM35.736 15.672L34.008 17.4C35.256 19.296 36 21.6 36 24C36 26.4 35.256 28.704 34.008 30.6L35.736 32.328C37.416 30 38.4 27.12 38.4 24C38.4 20.88 37.416 18 35.736 15.672ZM17.4 13.992C19.296 12.744 21.6 12 24 12C26.4 12 28.704 12.744 30.6 13.992L32.328 12.264C29.8969 10.531 26.9856 9.59955 24 9.59955C21.0144 9.59955 18.1031 10.531 15.672 12.264L17.4 13.992V13.992ZM30.6 34.008C28.704 35.256 26.4 36 24 36C21.6 36 19.296 35.256 17.4 34.008L15.672 35.736C18 37.416 20.88 38.4 24 38.4C27.12 38.4 30 37.416 32.328 35.736L30.6 34.008V34.008ZM13.992 30.6C12.744 28.704 12 26.4 12 24C12 21.6 12.744 19.296 13.992 17.4L12.264 15.672C10.531 18.1031 9.59955 21.0144 9.59955 24C9.59955 26.9856 10.531 29.8969 12.264 32.328L13.992 30.6V30.6Z" fill="#002F8A"/>
</svg>
