<svg width="42" height="47" viewBox="0 0 42 47" fill="none" xmlns="http://www.w3.org/2000/svg">
<path d="M39.6667 28.63V18.6667C39.6667 8.35333 31.3133 0 21 0C10.6867 0 2.33333 8.35333 2.33333 18.6667V28.63C0.933333 29.4233 0 30.94 0 32.6667V42C0 44.5667 2.1 46.6667 4.66667 46.6667H37.3333C39.9 46.6667 42 44.5667 42 42V32.6667C42 30.94 41.0667 29.4233 39.6667 28.63ZM9.33333 42H4.66667V32.6667H9.33333V42ZM18.6667 42H14V32.6667H18.6667V42ZM18.6667 28H7V18.6667C7 11.7367 12.04 5.97333 18.6667 4.85333V28ZM23.3333 4.85333C26.5971 5.40501 29.5598 7.09526 31.6956 9.62405C33.8314 12.1528 35.0022 15.3566 35 18.6667V28H23.3333V4.85333ZM28 42H23.3333V32.6667H28V42ZM37.3333 42H32.6667V32.6667H37.3333V42ZM11.6667 21C11.6667 19.7167 12.7167 18.6667 14 18.6667C15.2833 18.6667 16.3333 19.7167 16.3333 21C16.3333 22.2833 15.2833 23.3333 14 23.3333C12.7167 23.3333 11.6667 22.2833 11.6667 21ZM30.3333 21C30.3333 22.2833 29.2833 23.3333 28 23.3333C26.7167 23.3333 25.6667 22.2833 25.6667 21C25.6667 19.7167 26.7167 18.6667 28 18.6667C29.2833 18.6667 30.3333 19.7167 30.3333 21Z" fill="#002F8A"/>
</svg>
