<svg width="56" height="56" viewBox="0 0 56 56" fill="none" xmlns="http://www.w3.org/2000/svg">
<path d="M46.6667 33.2968V23.3334C46.6667 13.0201 38.3133 4.66675 28 4.66675C17.6867 4.66675 9.33333 13.0201 9.33333 23.3334V33.2968C7.93333 34.0901 7 35.6068 7 37.3334V46.6668C7 49.2334 9.1 51.3334 11.6667 51.3334H44.3333C46.9 51.3334 49 49.2334 49 46.6668V37.3334C49 35.6068 48.0667 34.0901 46.6667 33.2968ZM16.3333 46.6668H11.6667V37.3334H16.3333V46.6668ZM25.6667 46.6668H21V37.3334H25.6667V46.6668ZM25.6667 32.6667H14V23.3334C14 16.4034 19.04 10.6401 25.6667 9.52008V32.6667ZM30.3333 9.52008C33.5971 10.0718 36.5598 11.762 38.6956 14.2908C40.8314 16.8196 42.0022 20.0234 42 23.3334V32.6667H30.3333V9.52008ZM35 46.6668H30.3333V37.3334H35V46.6668ZM44.3333 46.6668H39.6667V37.3334H44.3333V46.6668ZM18.6667 25.6667C18.6667 24.3834 19.7167 23.3334 21 23.3334C22.2833 23.3334 23.3333 24.3834 23.3333 25.6667C23.3333 26.9501 22.2833 28.0001 21 28.0001C19.7167 28.0001 18.6667 26.9501 18.6667 25.6667ZM37.3333 25.6667C37.3333 26.9501 36.2833 28.0001 35 28.0001C33.7167 28.0001 32.6667 26.9501 32.6667 25.6667C32.6667 24.3834 33.7167 23.3334 35 23.3334C36.2833 23.3334 37.3333 24.3834 37.3333 25.6667Z" fill="black"/>
</svg>
