<svg width="36" height="47" viewBox="0 0 36 47" fill="none" xmlns="http://www.w3.org/2000/svg">
<path d="M9.46667 28.6667L2 44.6667M8.4 10.5333C8.4 10.5333 10.5333 8.26987 10.5333 6.26667C10.5333 3.42293 8.4 2 8.4 2M16.9333 10.5333C16.9333 10.5333 19.0667 8.26987 19.0667 6.26667C19.0667 3.42293 16.9333 2 16.9333 2M25.4667 10.5333C25.4667 10.5333 27.6 8.26987 27.6 6.26667C27.6 3.42293 25.4667 2 25.4667 2" stroke="#002F8A" stroke-width="3.25" stroke-linecap="round" stroke-linejoin="round"/>
<path d="M26.534 35.0667H7.33398" stroke="#002F8A" stroke-width="3.25" stroke-linejoin="round"/>
<path d="M24.4004 28.6666L28.8804 38.2666L24.4004 28.6666ZM30.8004 44.6666C31.6491 44.6666 32.463 44.3295 33.0631 43.7294C33.6632 43.1293 34.0004 42.3153 34.0004 41.4666C34.0004 40.6179 33.6632 39.804 33.0631 39.2039C32.463 38.6038 31.6491 38.2666 30.8004 38.2666C29.9517 38.2666 29.1378 38.6038 28.5377 39.2039C27.9375 39.804 27.6004 40.6179 27.6004 41.4666C27.6004 42.3153 27.9375 43.1293 28.5377 43.7294C29.1378 44.3295 29.9517 44.6666 30.8004 44.6666Z" stroke="#002F8A" stroke-width="3.25" stroke-linecap="round" stroke-linejoin="round"/>
<path d="M16.9334 29.7337C20.6727 29.7341 24.276 28.3317 27.0312 25.8036C29.7864 23.2756 31.4929 19.8059 31.8134 16.0804C31.8244 15.914 31.8006 15.7471 31.7436 15.5904C31.6866 15.4336 31.5975 15.2905 31.4821 15.1701C31.3667 15.0497 31.2275 14.9546 31.0733 14.891C30.9192 14.8273 30.7535 14.7965 30.5867 14.8004H3.28007C3.11333 14.7965 2.94761 14.8273 2.79345 14.891C2.6393 14.9546 2.50009 15.0497 2.38469 15.1701C2.2693 15.2905 2.18024 15.4336 2.1232 15.5904C2.06617 15.7471 2.04239 15.914 2.0534 16.0804C2.37391 19.8059 4.08041 23.2756 6.8356 25.8036C9.59078 28.3317 13.1941 29.7341 16.9334 29.7337V29.7337Z" stroke="#002F8A" stroke-width="3.25"/>
</svg>
