<svg width="43" height="41" viewBox="0 0 43 41" fill="none" xmlns="http://www.w3.org/2000/svg">
<path d="M43 41H0V36.6842H43V41ZM43 6.47368H0V0H43V6.47368ZM38.7 8.63158V34.5263H32.25V17.2632C32.25 17.2632 26.875 15.1053 21.5 15.1053C16.125 15.1053 10.75 17.2632 10.75 17.2632V34.5263H4.3V8.63158H38.7ZM26.875 25.1826H26.8105L27.5415 26.3695L27.6705 26.6284C28.5735 28.8079 27.95 31.2895 26.2515 32.8863C24.725 34.3105 22.575 34.6774 20.597 34.4184C18.7265 34.1811 16.985 32.9942 16.0175 31.3542C15.695 30.8579 15.4585 30.2753 15.3295 29.7142L15.05 28.29C14.964 26.2184 15.781 24.0389 17.329 22.7442C16.6195 24.2979 16.7915 26.24 17.845 27.5995L17.974 27.7721C18.146 27.9232 18.3825 27.9879 18.576 27.88C18.7695 27.8153 18.92 27.6211 18.92 27.4053L18.834 27.1032C17.6945 24.1037 18.662 20.6079 21.0485 18.6226C21.715 18.0832 22.575 17.5868 23.3705 17.3711C22.489 19.1405 22.8115 21.4279 24.1875 22.8089L26.101 24.3842L26.875 25.1826V25.1826ZM23.8865 31.16C24.4455 30.6421 24.7895 29.779 24.725 29.0021V28.5921C24.467 27.2974 23.3275 26.8874 22.575 25.8947L22.059 24.9237C21.7795 25.5711 21.758 26.1753 21.8655 26.8874C21.9945 27.6211 22.2955 28.2468 22.1235 29.0021C21.93 29.8437 21.285 30.6853 20.1455 30.9658C20.7905 31.5916 21.8225 32.0879 22.876 31.7426L23.8865 31.16Z" fill="#002F8A"/>
</svg>
