<svg width="44" height="44" viewBox="0 0 44 44" fill="none" xmlns="http://www.w3.org/2000/svg">
<path d="M2.16667 38.4009V41.1677C2.16667 41.7423 2.39494 42.2934 2.80127 42.6998C3.2076 43.1061 3.7587 43.3344 4.33333 43.3344H6.5C7.07464 43.3344 7.62574 43.1061 8.03206 42.6998C8.43839 42.2934 8.66667 41.7423 8.66667 41.1677V39.001H34.6667V41.1677C34.6667 41.7423 34.8949 42.2934 35.3013 42.6998C35.7076 43.1061 36.2587 43.3344 36.8333 43.3344H39C39.5746 43.3344 40.1257 43.1061 40.5321 42.6998C40.9384 42.2934 41.1667 41.7423 41.1667 41.1677V38.4009C41.824 38.0239 42.3704 37.4803 42.7508 36.8249C43.1312 36.1695 43.3321 35.4255 43.3333 34.6677V28.1677C43.3333 26.3672 42.2348 24.8267 40.6727 24.1702L37.7087 15.2782C37.2787 13.9836 36.4517 12.8574 35.3451 12.0596C34.2385 11.2619 32.9087 10.8331 31.5445 10.8344H11.7888C10.4247 10.8331 9.09483 11.2619 7.98825 12.0596C6.88167 12.8574 6.05464 13.9836 5.62467 15.2782L2.66067 24.1702C1.87265 24.5002 1.19971 25.0557 0.726341 25.7669C0.252974 26.4781 0.000283102 27.3133 0 28.1677V34.6677C0 36.2667 0.875333 37.649 2.16667 38.4009ZM7.58333 34.6677C7.1564 34.6675 6.73367 34.5833 6.33928 34.4198C5.9449 34.2563 5.58658 34.0167 5.28479 33.7147C4.67529 33.1048 4.33305 32.2778 4.33333 31.4155C4.33362 30.5533 4.67642 29.7265 5.28632 29.117C5.89622 28.5075 6.72326 28.1652 7.5855 28.1655C8.44774 28.1658 9.27455 28.5086 9.88405 29.1185C10.4935 29.7284 10.8358 30.5554 10.8355 31.4177C10.8352 32.2799 10.4924 33.1067 9.88251 33.7162C9.27261 34.3257 8.44557 34.668 7.58333 34.6677V34.6677ZM35.75 34.6677C34.8878 34.6674 34.0609 34.3246 33.4515 33.7147C32.842 33.1048 32.4997 32.2778 32.5 31.4155C32.5003 30.5533 32.8431 29.7265 33.453 29.117C34.0629 28.5075 34.8899 28.1652 35.7522 28.1655C36.6144 28.1658 37.4412 28.5086 38.0507 29.1185C38.6602 29.7284 39.0025 30.5554 39.0022 31.4177C39.0019 32.2799 38.6591 33.1067 38.0492 33.7162C37.4393 34.3257 36.6122 34.668 35.75 34.6677V34.6677ZM11.7888 15.1677H31.5423C31.9973 15.1676 32.4407 15.3107 32.8097 15.5767C33.1788 15.8427 33.4547 16.2181 33.5985 16.6497L35.9948 23.8344H7.3385L9.73267 16.6497C10.0295 15.7635 10.8572 15.1677 11.7888 15.1677V15.1677Z" fill="#002F8A"/>
<path d="M43.3333 11.6751V7.1056L22.3513 0.111596C21.8876 -0.0436169 21.385 -0.0367418 20.9257 0.131095L0 7.74043V12.3511L21.6992 4.4601L43.3333 11.6751Z" fill="#002F8A"/>
</svg>
