<svg width="35" height="41" viewBox="0 0 35 41" fill="none" xmlns="http://www.w3.org/2000/svg">
<path d="M34.4667 22.0667C34.4667 32.4381 27.6047 40.8667 17.2333 40.8667C6.862 40.8667 0 32.4381 0 22.0667C3.46165 22.0959 6.82869 23.2001 9.63538 25.2265C12.4421 27.2529 14.5497 30.1015 15.6667 33.3781V18.9334H7.83333C6.58682 18.9334 5.39135 18.4382 4.50993 17.5568C3.62851 16.6754 3.13333 15.4799 3.13333 14.2334V4.83341C3.13333 4.50459 3.23679 4.18411 3.42905 3.91736C3.62132 3.65061 3.89263 3.45112 4.20458 3.34713C4.51652 3.24315 4.85327 3.23996 5.16713 3.338C5.48099 3.43604 5.75604 3.63035 5.95333 3.89341L10.7473 10.1601L15.9173 0.760072C16.0594 0.540194 16.2542 0.359407 16.4841 0.234225C16.714 0.109044 16.9716 0.043457 17.2333 0.043457C17.4951 0.043457 17.7527 0.109044 17.9826 0.234225C18.2125 0.359407 18.4073 0.540194 18.5493 0.760072L23.7193 10.1601L28.5133 3.89341C28.7106 3.63035 28.9857 3.43604 29.2995 3.338C29.6134 3.23996 29.9501 3.24315 30.2621 3.34713C30.574 3.45112 30.8454 3.65061 31.0376 3.91736C31.2299 4.18411 31.3333 4.50459 31.3333 4.83341V14.2334C31.3333 15.4799 30.8382 16.6754 29.9567 17.5568C29.0753 18.4382 27.8799 18.9334 26.6333 18.9334H18.8V33.3781C19.917 30.1015 22.0246 27.2529 24.8313 25.2265C27.638 23.2001 31.005 22.0959 34.4667 22.0667V22.0667Z" fill="black"/>
</svg>
