<svg width="35" height="41" viewBox="0 0 35 41" fill="none" xmlns="http://www.w3.org/2000/svg">
<path d="M34.4667 22.0233C34.4667 32.3946 27.6047 40.8233 17.2333 40.8233C6.862 40.8233 0 32.3946 0 22.0233C3.46165 22.0525 6.82869 23.1566 9.63538 25.183C12.4421 27.2095 14.5497 30.058 15.6667 33.3346V18.8899H7.83333C6.58682 18.8899 5.39135 18.3948 4.50993 17.5134C3.62851 16.6319 3.13333 15.4365 3.13333 14.1899V4.78995C3.13333 4.46113 3.23679 4.14065 3.42905 3.8739C3.62132 3.60715 3.89263 3.40766 4.20458 3.30368C4.51652 3.1997 4.85327 3.1965 5.16713 3.29454C5.48099 3.39259 5.75604 3.5869 5.95333 3.84995L10.7473 10.1166L15.9173 0.716615C16.0594 0.496737 16.2542 0.31595 16.4841 0.190768C16.714 0.0655866 16.9716 0 17.2333 0C17.4951 0 17.7527 0.0655866 17.9826 0.190768C18.2125 0.31595 18.4073 0.496737 18.5493 0.716615L23.7193 10.1166L28.5133 3.84995C28.7106 3.5869 28.9857 3.39259 29.2995 3.29454C29.6134 3.1965 29.9501 3.1997 30.2621 3.30368C30.574 3.40766 30.8454 3.60715 31.0376 3.8739C31.2299 4.14065 31.3333 4.46113 31.3333 4.78995V14.1899C31.3333 15.4365 30.8382 16.6319 29.9567 17.5134C29.0753 18.3948 27.8799 18.8899 26.6333 18.8899H18.8V33.3346C19.917 30.058 22.0246 27.2095 24.8313 25.183C27.638 23.1566 31.005 22.0525 34.4667 22.0233V22.0233Z" fill="#002F8A"/>
</svg>
