<svg width="58" height="29" viewBox="0 0 58 29" fill="none" xmlns="http://www.w3.org/2000/svg">
<path d="M17.7333 2H10.85C10.4588 2 10.0836 2.1554 9.80702 2.43202C9.5304 2.70863 9.375 3.08381 9.375 3.475V25.1083C9.375 25.302 9.41315 25.4938 9.48728 25.6728C9.5614 25.8517 9.67005 26.0143 9.80702 26.1513C9.94398 26.2883 10.1066 26.3969 10.2855 26.4711C10.4645 26.5452 10.6563 26.5833 10.85 26.5833H17.7333C17.927 26.5833 18.1188 26.5452 18.2978 26.4711C18.4767 26.3969 18.6393 26.2883 18.7763 26.1513C18.9133 26.0143 19.0219 25.8517 19.0961 25.6728C19.1702 25.4938 19.2083 25.302 19.2083 25.1083V3.475C19.2083 3.08381 19.0529 2.70863 18.7763 2.43202C18.4997 2.1554 18.1245 2 17.7333 2V2ZM47.2333 2H40.35C39.9588 2 39.5836 2.1554 39.307 2.43202C39.0304 2.70863 38.875 3.08381 38.875 3.475V25.1083C38.875 25.302 38.9131 25.4938 38.9873 25.6728C39.0614 25.8517 39.17 26.0143 39.307 26.1513C39.444 26.2883 39.6066 26.3969 39.7855 26.4711C39.9645 26.5452 40.1563 26.5833 40.35 26.5833H47.2333C47.427 26.5833 47.6188 26.5452 47.7978 26.4711C47.9767 26.3969 48.1393 26.2883 48.2763 26.1513C48.4133 26.0143 48.5219 25.8517 48.5961 25.6728C48.6702 25.4938 48.7083 25.302 48.7083 25.1083V3.475C48.7083 3.08381 48.5529 2.70863 48.2763 2.43202C47.9997 2.1554 47.6245 2 47.2333 2V2Z" stroke="#002F8A" stroke-width="3.5" stroke-linecap="round" stroke-linejoin="round"/>
<path d="M19.2083 14.2916H38.875M2 20.1916V8.39163C2 8.00043 2.1554 7.62526 2.43202 7.34864C2.70863 7.07203 3.08381 6.91663 3.475 6.91663H7.9C8.29119 6.91663 8.66637 7.07203 8.94298 7.34864C9.2196 7.62526 9.375 8.00043 9.375 8.39163V20.1916C9.375 20.5828 9.2196 20.958 8.94298 21.2346C8.66637 21.5112 8.29119 21.6666 7.9 21.6666H3.475C3.08381 21.6666 2.70863 21.5112 2.43202 21.2346C2.1554 20.958 2 20.5828 2 20.1916V20.1916ZM56.0833 20.1916V8.39163C56.0833 8.00043 55.9279 7.62526 55.6513 7.34864C55.3747 7.07203 54.9995 6.91663 54.6083 6.91663H50.1833C49.7921 6.91663 49.417 7.07203 49.1403 7.34864C48.8637 7.62526 48.7083 8.00043 48.7083 8.39163V20.1916C48.7083 20.5828 48.8637 20.958 49.1403 21.2346C49.417 21.5112 49.7921 21.6666 50.1833 21.6666H54.6083C54.9995 21.6666 55.3747 21.5112 55.6513 21.2346C55.9279 20.958 56.0833 20.5828 56.0833 20.1916V20.1916Z" stroke="#002F8A" stroke-width="3.5" stroke-linecap="round" stroke-linejoin="round"/>
</svg>
