<svg width="43" height="39" viewBox="0 0 43 39" fill="none" xmlns="http://www.w3.org/2000/svg">
<path d="M39.8905 13.0794L36.9835 4.35838C36.5618 3.08865 35.7507 1.98411 34.6654 1.2017C33.5801 0.419296 32.2758 -0.00118619 30.9379 2.5134e-06H11.5621C10.2242 -0.00118619 8.91993 0.419296 7.83463 1.2017C6.74933 1.98411 5.9382 3.08865 5.5165 4.35838L2.6095 13.0794C1.83647 13.4028 1.17632 13.9476 0.712017 14.6452C0.247718 15.3428 -1.02191e-06 16.162 0 17V27.625C0 29.1933 0.8585 30.549 2.125 31.2864V36.125C2.125 36.6886 2.34888 37.2291 2.7474 37.6276C3.14591 38.0261 3.68641 38.25 4.25 38.25H6.375C6.93859 38.25 7.47909 38.0261 7.8776 37.6276C8.27612 37.2291 8.5 36.6886 8.5 36.125V31.875H34V36.125C34 36.6886 34.2239 37.2291 34.6224 37.6276C35.0209 38.0261 35.5614 38.25 36.125 38.25H38.25C38.8136 38.25 39.3541 38.0261 39.7526 37.6276C40.1511 37.2291 40.375 36.6886 40.375 36.125V31.2864C41.0197 30.9166 41.5556 30.3835 41.9286 29.7407C42.3017 29.098 42.4988 28.3682 42.5 27.625V17C42.5 16.162 42.2523 15.3428 41.788 14.6452C41.3237 13.9476 40.6635 13.4028 39.8905 13.0794ZM11.5621 4.25H30.9358C31.8516 4.25 32.6634 4.83225 32.9524 5.7035L35.3026 12.75H7.19738L9.5455 5.7035C9.68649 5.28019 9.95715 4.91199 10.3191 4.65111C10.6811 4.39023 11.116 4.2499 11.5621 4.25V4.25ZM7.4375 25.5C7.01877 25.4999 6.60417 25.4172 6.21737 25.2569C5.83057 25.0965 5.47914 24.8615 5.18316 24.5653C4.88717 24.2692 4.65242 23.9176 4.49231 23.5307C4.3322 23.1438 4.24986 22.7291 4.25 22.3104C4.25014 21.8916 4.33275 21.477 4.49312 21.0902C4.65349 20.7034 4.88848 20.352 5.18466 20.056C5.48084 19.76 5.83243 19.5253 6.21933 19.3652C6.60624 19.2051 7.0209 19.1227 7.43962 19.1229C8.28528 19.1232 9.0962 19.4594 9.69397 20.0575C10.2917 20.6557 10.6274 21.4668 10.6271 22.3125C10.6268 23.1582 10.2906 23.9691 9.69247 24.5668C9.09429 25.1646 8.28316 25.5003 7.4375 25.5V25.5ZM35.0625 25.5C34.6438 25.4999 34.2292 25.4172 33.8424 25.2569C33.4556 25.0965 33.1041 24.8615 32.8082 24.5653C32.5122 24.2692 32.2774 23.9176 32.1173 23.5307C31.9572 23.1438 31.8749 22.7291 31.875 22.3104C31.8751 21.8916 31.9578 21.477 32.1181 21.0902C32.2785 20.7034 32.5135 20.352 32.8097 20.056C33.1058 19.76 33.4574 19.5253 33.8443 19.3652C34.2312 19.2051 34.6459 19.1227 35.0646 19.1229C35.9103 19.1232 36.7212 19.4594 37.319 20.0575C37.9167 20.6557 38.2524 21.4668 38.2521 22.3125C38.2518 23.1582 37.9156 23.9691 37.3175 24.5668C36.7193 25.1646 35.9082 25.5003 35.0625 25.5V25.5Z" fill="#002F8A"/>
</svg>
