<svg width="43" height="39" viewBox="0 0 43 39" fill="none" xmlns="http://www.w3.org/2000/svg">
<path d="M40.1405 13.5794L37.2335 4.85838C36.8118 3.58865 36.0007 2.48411 34.9154 1.7017C33.8301 0.919296 32.5258 0.498814 31.1879 0.500003H11.8121C10.4742 0.498814 9.16993 0.919296 8.08463 1.7017C6.99933 2.48411 6.1882 3.58865 5.7665 4.85838L2.8595 13.5794C2.08647 13.9028 1.42632 14.4476 0.962017 15.1452C0.497718 15.8428 0.249999 16.662 0.25 17.5V28.125C0.25 29.6933 1.1085 31.049 2.375 31.7864V36.625C2.375 37.1886 2.59888 37.7291 2.9974 38.1276C3.39591 38.5261 3.93641 38.75 4.5 38.75H6.625C7.18859 38.75 7.72909 38.5261 8.1276 38.1276C8.52612 37.7291 8.75 37.1886 8.75 36.625V32.375H34.25V36.625C34.25 37.1886 34.4739 37.7291 34.8724 38.1276C35.2709 38.5261 35.8114 38.75 36.375 38.75H38.5C39.0636 38.75 39.6041 38.5261 40.0026 38.1276C40.4011 37.7291 40.625 37.1886 40.625 36.625V31.7864C41.2697 31.4166 41.8056 30.8835 42.1786 30.2407C42.5517 29.598 42.7488 28.8682 42.75 28.125V17.5C42.75 16.662 42.5023 15.8428 42.038 15.1452C41.5737 14.4476 40.9135 13.9028 40.1405 13.5794ZM11.8121 4.75H31.1858C32.1016 4.75 32.9134 5.33225 33.2024 6.2035L35.5526 13.25H7.44738L9.7955 6.2035C9.93649 5.78019 10.2071 5.41199 10.5691 5.15111C10.9311 4.89023 11.366 4.7499 11.8121 4.75V4.75ZM7.6875 26C7.26877 25.9999 6.85417 25.9172 6.46737 25.7569C6.08057 25.5965 5.72914 25.3615 5.43316 25.0653C5.13717 24.7692 4.90242 24.4176 4.74231 24.0307C4.5822 23.6438 4.49986 23.2291 4.5 22.8104C4.50014 22.3916 4.58275 21.977 4.74312 21.5902C4.90349 21.2034 5.13848 20.852 5.43466 20.556C5.73084 20.26 6.08243 20.0253 6.46933 19.8652C6.85624 19.7051 7.2709 19.6227 7.68962 19.6229C8.53528 19.6232 9.3462 19.9594 9.94397 20.5575C10.5417 21.1557 10.8774 21.9668 10.8771 22.8125C10.8768 23.6582 10.5406 24.4691 9.94247 25.0668C9.34429 25.6646 8.53316 26.0003 7.6875 26V26ZM35.3125 26C34.8938 25.9999 34.4792 25.9172 34.0924 25.7569C33.7056 25.5965 33.3541 25.3615 33.0582 25.0653C32.7622 24.7692 32.5274 24.4176 32.3673 24.0307C32.2072 23.6438 32.1249 23.2291 32.125 22.8104C32.1251 22.3916 32.2078 21.977 32.3681 21.5902C32.5285 21.2034 32.7635 20.852 33.0597 20.556C33.3558 20.26 33.7074 20.0253 34.0943 19.8652C34.4812 19.7051 34.8959 19.6227 35.3146 19.6229C36.1603 19.6232 36.9712 19.9594 37.569 20.5575C38.1667 21.1557 38.5024 21.9668 38.5021 22.8125C38.5018 23.6582 38.1656 24.4691 37.5675 25.0668C36.9693 25.6646 36.1582 26.0003 35.3125 26V26Z" fill="black"/>
</svg>
