<svg width="46" height="42" viewBox="0 0 46 42" fill="none" xmlns="http://www.w3.org/2000/svg">
<path d="M45.8333 30.9379H45.7875H45.8333ZM18.3333 11.4587L10.8854 18.9066C11.5958 19.1816 12.1688 19.5254 12.65 19.8004C13.4979 20.3274 14.0021 20.6254 15.2854 20.6254C16.5688 20.6254 17.0729 20.3274 17.9208 19.8004C18.975 19.1816 20.3958 18.3337 22.9396 18.3337C25.4833 18.3337 26.9042 19.1816 27.9354 19.8004C28.7833 20.3045 29.3104 20.6254 30.5708 20.6254C31.8313 20.6254 32.3583 20.3274 33.2063 19.8004C33.4813 19.6399 33.8021 19.4566 34.1458 19.2733L19.4333 4.5837C15.8812 1.03161 12.6042 -0.0225527 6.875 0.000363999V5.72953C11.0458 5.70661 13.4979 6.62328 16.0417 9.16703L18.3333 11.4587ZM7.67708 28.6462C8.9375 28.6462 9.46458 28.967 10.3125 29.4712C11.3438 30.0899 12.7646 30.9379 15.3083 30.9379C17.8521 30.9379 19.2729 30.0899 20.3042 29.4712C21.1521 28.9441 21.6563 28.6462 22.9396 28.6462C24.2 28.6462 24.7271 28.967 25.575 29.4712C26.6063 30.0899 28.0271 30.9379 30.5708 30.9379C33.1146 30.9379 34.5354 30.0899 35.5667 29.4712C36.4146 28.9441 36.9188 28.6462 38.2021 28.6462C39.4625 28.6462 39.9896 28.967 40.8375 29.4712C41.8688 30.0899 43.2667 30.9149 45.7875 30.9379V26.3545C44.5271 26.3545 44 26.0337 43.1521 25.5295C42.1208 24.9108 40.7 24.0629 38.1563 24.0629C35.6125 24.0629 34.1917 24.9108 33.1604 25.5295C32.3125 26.0566 31.7854 26.3545 30.525 26.3545C29.2646 26.3545 28.7375 26.0337 27.8896 25.5295C26.8583 24.9108 25.4375 24.0629 22.8938 24.0629C20.35 24.0629 18.9292 24.9108 17.8979 25.5295C17.05 26.0566 16.5458 26.3545 15.2625 26.3545C14.0021 26.3545 13.475 26.0337 12.6271 25.5295C11.5958 24.9108 10.175 24.0629 7.63125 24.0629C5.0875 24.0629 3.66667 24.9108 2.63542 25.5295C1.7875 26.0566 1.28333 26.3545 0 26.3545V30.9379C2.54375 30.9379 3.96458 30.0899 5.04167 29.4712C5.88958 28.9441 6.41667 28.6462 7.67708 28.6462V28.6462ZM38.2021 34.3754C35.6583 34.3754 34.2375 35.2233 33.2063 35.842C32.3583 36.3691 31.8313 36.667 30.5708 36.667C29.3104 36.667 28.7833 36.3462 27.9354 35.842C26.9042 35.2233 25.4833 34.3754 22.9396 34.3754C20.3958 34.3754 18.975 35.2233 17.9208 35.842C17.0729 36.3691 16.5688 36.667 15.2854 36.667C14.0021 36.667 13.4979 36.3691 12.65 35.842C11.6188 35.2233 10.1979 34.3754 7.65417 34.3754C5.11042 34.3754 3.68958 35.2233 2.63542 35.842C1.7875 36.3691 1.28333 36.667 0 36.667V41.2504C2.54375 41.2504 3.96458 40.4024 5.01875 39.7837C5.86667 39.2566 6.39375 38.9587 7.65417 38.9587C8.91458 38.9587 9.44167 39.2566 10.2896 39.7837C11.3208 40.4024 12.7417 41.2504 15.2854 41.2504C17.8292 41.2504 19.25 40.4024 20.3042 39.7837C21.1521 39.2566 21.6563 38.9587 22.9396 38.9587C24.2 38.9587 24.7271 39.2795 25.575 39.7837C26.6063 40.4024 28.0271 41.2504 30.5708 41.2504C33.1146 41.2504 34.5125 40.4024 35.5667 39.7837C36.4146 39.2566 36.9188 38.9587 38.2021 38.9587C39.4625 38.9587 39.9896 39.2795 40.8375 39.7837C41.8688 40.4024 43.2896 41.2504 45.8333 41.2504V36.667C44.55 36.667 44.0458 36.3691 43.1979 35.842C42.1667 35.2233 40.7458 34.3754 38.2021 34.3754Z" fill="#002F8A"/>
<path d="M33.2292 11.4588C36.3933 11.4588 38.9583 8.89379 38.9583 5.72966C38.9583 2.56552 36.3933 0.000488281 33.2292 0.000488281C30.065 0.000488281 27.5 2.56552 27.5 5.72966C27.5 8.89379 30.065 11.4588 33.2292 11.4588Z" fill="#002F8A"/>
</svg>
