<svg width="42" height="43" viewBox="0 0 42 43" fill="none" xmlns="http://www.w3.org/2000/svg">
<path d="M37.2656 42.4919H27.3281C26.2316 42.4864 25.1816 42.0484 24.4063 41.2731C23.6309 40.4977 23.1929 39.4477 23.1875 38.3512V29.2419H18.2188V38.3512C18.2133 39.4477 17.7753 40.4977 17 41.2731C16.2246 42.0484 15.1746 42.4864 14.0781 42.4919H4.14062C3.04414 42.4864 1.99411 42.0484 1.21877 41.2731C0.443432 40.4977 0.00544171 39.4477 0 38.3512V19.2008C0.0013657 18.623 0.123644 18.0519 0.358973 17.5242C0.594301 16.9965 0.937468 16.5239 1.36641 16.1368L17.9082 1.0856C18.6715 0.38728 19.6686 0 20.7031 0C21.7377 0 22.7347 0.38728 23.498 1.0856L40.0605 16.1368C40.4827 16.5281 40.82 17.002 41.0515 17.5291C41.283 18.0562 41.4038 18.6252 41.4062 19.2008V38.3512C41.4008 39.4477 40.9628 40.4977 40.1875 41.2731C39.4121 42.0484 38.3621 42.4864 37.2656 42.4919V42.4919ZM28.1562 37.5231H36.4375V19.5735L20.7031 5.26763L4.96875 19.5735V37.5231H13.25V28.4137C13.2554 27.3172 13.6934 26.2672 14.4688 25.4919C15.2441 24.7165 16.2941 24.2785 17.3906 24.2731H24.0156C25.1121 24.2785 26.1621 24.7165 26.9375 25.4919C27.7128 26.2672 28.1508 27.3172 28.1562 28.4137V37.5231Z" fill="#002F8A"/>
</svg>
