<svg width="41" height="44" viewBox="0 0 41 44" fill="none" xmlns="http://www.w3.org/2000/svg">
<path d="M18.5041 2.51703C19.1147 2.17794 19.8016 2 20.5 2C21.1984 2 21.8853 2.17794 22.4959 2.51703L37.9434 11.0969C38.2637 11.275 38.5305 11.5355 38.7163 11.8514C38.9021 12.1672 39 12.527 39 12.8935V29.821C38.9998 30.5541 38.8036 31.2738 38.4317 31.9056C38.0598 32.5373 37.5257 33.0582 36.8848 33.4141L22.4959 41.4102C21.8853 41.7493 21.1984 41.9272 20.5 41.9272C19.8016 41.9272 19.1147 41.7493 18.5041 41.4102L4.11517 33.4141C3.47456 33.0583 2.94069 32.5378 2.5688 31.9065C2.19692 31.2751 2.00054 30.5558 2 29.823V12.8935C1.99998 12.527 2.09793 12.1672 2.2837 11.8514C2.46946 11.5355 2.73629 11.275 3.05656 11.0969L18.5061 2.51703H18.5041Z" stroke="#002F8A" stroke-width="3" stroke-linecap="round" stroke-linejoin="round"/>
<path d="M20.5 21.9623V42.5179M2 11.6846L20.5 21.9623L2 11.6846ZM20.5 21.9623L39 11.6846L20.5 21.9623Z" stroke="#002F8A" stroke-width="3" stroke-linejoin="round"/>
<path d="M8.16602 22.6365L14.3327 26.0734M11.2493 16.8234L29.7493 6.54565L11.2493 16.8234Z" stroke="#002F8A" stroke-width="3" stroke-linecap="round" stroke-linejoin="round"/>
</svg>
