<svg width="36" height="44" viewBox="0 0 36 44" fill="none" xmlns="http://www.w3.org/2000/svg">
<path d="M32 2H4C2.89543 2 2 2.89543 2 4V40C2 41.1046 2.89543 42 4 42H32C33.1046 42 34 41.1046 34 40V4C34 2.89543 33.1046 2 32 2Z" stroke="#002F8A" stroke-width="4"/>
<path d="M2 13.5H34" stroke="#002F8A" stroke-width="4" stroke-linecap="round" stroke-linejoin="round"/>
<path d="M22 10C23.1046 10 24 9.10457 24 8C24 6.89543 23.1046 6 22 6C20.8954 6 20 6.89543 20 8C20 9.10457 20.8954 10 22 10Z" fill="#002F8A"/>
<path d="M28 10C29.1046 10 30 9.10457 30 8C30 6.89543 29.1046 6 28 6C26.8954 6 26 6.89543 26 8C26 9.10457 26.8954 10 28 10Z" fill="#002F8A"/>
<path d="M18 35C21.866 35 25 31.866 25 28C25 24.134 21.866 21 18 21C14.134 21 11 24.134 11 28C11 31.866 14.134 35 18 35Z" stroke="#002F8A" stroke-width="4"/>
</svg>
