<svg width="58" height="43" viewBox="0 0 58 43" fill="none" xmlns="http://www.w3.org/2000/svg">
<path fill-rule="evenodd" clip-rule="evenodd" d="M52.6147 15.9263C39.5119 2.82354 18.2717 2.82354 5.16887 15.9263C4.59363 16.4819 3.8232 16.7893 3.0235 16.7824C2.2238 16.7754 1.45882 16.4547 0.893324 15.8892C0.32783 15.3237 0.00706448 14.5587 0.000115298 13.759C-0.00683388 12.9593 0.300589 12.1889 0.856171 11.6136C16.338 -3.87121 41.4456 -3.87121 56.9274 11.6136C57.4829 12.1889 57.7904 12.9593 57.7834 13.759C57.7765 14.5587 57.4557 15.3237 56.8902 15.8892C56.3247 16.4547 55.5597 16.7754 54.76 16.7824C53.9603 16.7893 53.1899 16.4819 52.6147 15.9263ZM43.9893 24.5517C42.0067 22.569 39.653 20.9962 37.0626 19.9231C34.4721 18.85 31.6957 18.2977 28.8918 18.2977C26.0879 18.2977 23.3114 18.85 20.721 19.9231C18.1305 20.9962 15.7768 22.569 13.7943 24.5517C13.219 25.1073 12.4486 25.4147 11.6489 25.4078C10.8492 25.4008 10.0842 25.0801 9.51872 24.5146C8.95323 23.9491 8.63246 23.1841 8.62551 22.3844C8.61857 21.5847 8.92599 20.8143 9.48157 20.239C12.0305 17.69 15.0566 15.6681 18.387 14.2885C21.7174 12.909 25.287 12.199 28.8918 12.199C32.4966 12.199 36.0661 12.909 39.3965 14.2885C42.7269 15.6681 45.753 17.69 48.302 20.239C48.8576 20.8143 49.165 21.5847 49.158 22.3844C49.1511 23.1841 48.8303 23.9491 48.2648 24.5146C47.6993 25.0801 46.9343 25.4008 46.1346 25.4078C45.3349 25.4147 44.5645 25.1073 43.9893 24.5517V24.5517ZM35.3578 33.1832C33.6419 31.4679 31.315 30.5042 28.8887 30.5042C26.4625 30.5042 24.1355 31.4679 22.4197 33.1832C21.8474 33.7555 21.0712 34.0771 20.2618 34.0771C19.4524 34.0771 18.6762 33.7555 18.1039 33.1832C17.5316 32.6109 17.2101 31.8347 17.2101 31.0254C17.2101 30.216 17.5316 29.4398 18.1039 28.8675C19.5201 27.451 21.2014 26.3273 23.0519 25.5607C24.9023 24.794 26.8857 24.3994 28.8887 24.3994C30.8917 24.3994 32.8751 24.794 34.7256 25.5607C36.576 26.3273 38.2574 27.451 39.6735 28.8675C40.2458 29.4398 40.5673 30.216 40.5673 31.0254C40.5673 31.8347 40.2458 32.6109 39.6735 33.1832C39.1012 33.7555 38.325 34.0771 37.5156 34.0771C36.7063 34.0771 35.9301 33.7555 35.3578 33.1832V33.1832ZM25.8418 39.6492C25.8418 38.8403 26.1631 38.0646 26.7351 37.4926C27.3071 36.9206 28.0829 36.5992 28.8918 36.5992H28.9223C29.7312 36.5992 30.507 36.9206 31.0789 37.4926C31.6509 38.0646 31.9723 38.8403 31.9723 39.6492C31.9723 40.4582 31.6509 41.2339 31.0789 41.8059C30.507 42.3779 29.7312 42.6992 28.9223 42.6992H28.8918C28.0829 42.6992 27.3071 42.3779 26.7351 41.8059C26.1631 41.2339 25.8418 40.4582 25.8418 39.6492Z" fill="black"/>
</svg>
